# xmcd
#
# Track frame offsets: 
#        183
#        23653
#        42680
#        61470
#        81910
#        100943
#        120880
#        138240
#        161380
#        182388
#        200210
#        218155
#        238155
#        258133
#
# Disc length: 3697 seconds
#
# Revision: 3
# Processed by: cddbd v1.5.2PL0 Copyright (c) Steve Scherf et al.
# Submitted via: ExactAudioCopy v1.0b3
#
DISCID=bc0e6f0e
DTITLE=Lisa Keith - Walkin' In The Sun
DYEAR=1993
DGENRE=Blues
TTITLE0=Love Isn't Body ... It's Soul
TTITLE1=Better Than You
TTITLE2=Love Is Alive and Well
TTITLE3=I'm In Love
TTITLE4=Days Like These
TTITLE5=A Love For All Seasons
TTITLE6=World Of Joy
TTITLE7=Sunshine Daydreamin'
TTITLE8=Closer
TTITLE9=Love Me Like You Do
TTITLE10=Free As You Wanna Be
TTITLE11=True To You
TTITLE12=Walkin' In The Sun
TTITLE13=Adonai
EXTD=
EXTT0=
EXTT1=
EXTT2=
EXTT3=
EXTT4=
EXTT5=
EXTT6=
EXTT7=
EXTT8=
EXTT9=
EXTT10=
EXTT11=
EXTT12=
EXTT13=
PLAYORDER=
